<?xml version="1.0" encoding="utf-8"?>
<!-- Generator: Adobe Illustrator 22.1.0, SVG Export Plug-In . SVG Version: 6.00 Build 0)  -->
<svg version="1.1" id="Layer_1" xmlns="http://www.w3.org/2000/svg" xmlns:xlink="http://www.w3.org/1999/xlink" x="0px" y="0px"
	 viewBox="0 0 217.6 289.9" style="enable-background:new 0 0 217.6 289.9;" xml:space="preserve">
<style type="text/css">
	.st0{fill:url(#SVGID_1_);}
	.st1{fill:url(#SVGID_2_);}
	.st2{fill:url(#SVGID_3_);}
	.st3{fill:url(#SVGID_4_);}
	.st4{fill:url(#SVGID_5_);}
	.st5{fill:url(#SVGID_6_);}
	.st6{fill:#3BEA92;}
</style>
<g>
	<g>
		<linearGradient id="SVGID_1_" gradientUnits="userSpaceOnUse" x1="108.7864" y1="127.9691" x2="108.7864" y2="233.0231">
			<stop  offset="7.834535e-02" style="stop-color:#5E77FF"/>
			<stop  offset="1" style="stop-color:#650091"/>
		</linearGradient>
		<polygon class="st0" points="81.2,233 136.4,233 136.4,183.2 81.2,128 		"/>
		<linearGradient id="SVGID_2_" gradientUnits="userSpaceOnUse" x1="108.766" y1="0" x2="108.766" y2="105.0497">
			<stop  offset="0" style="stop-color:#3CFFA2"/>
			<stop  offset="0.8315" style="stop-color:#5E77FF"/>
		</linearGradient>
		<polygon class="st1" points="81.1,0 136.4,0 136.4,105 81.1,49.8 		"/>
		<linearGradient id="SVGID_3_" gradientUnits="userSpaceOnUse" x1="27.6208" y1="-2.308062e-02" x2="27.6208" y2="233.0231">
			<stop  offset="0" style="stop-color:#3CFFA2"/>
			<stop  offset="0.528" style="stop-color:#5E77FF"/>
			<stop  offset="1" style="stop-color:#650091"/>
		</linearGradient>
		<polygon class="st2" points="0,233 55.2,233 55.2,102 6.9,53.7 46,14.6 55.2,23.9 55.2,0 0,0 		"/>
		<linearGradient id="SVGID_4_" gradientUnits="userSpaceOnUse" x1="189.9726" y1="0" x2="189.9726" y2="233.0446">
			<stop  offset="0" style="stop-color:#3CFFA2"/>
			<stop  offset="0.528" style="stop-color:#5E77FF"/>
			<stop  offset="1" style="stop-color:#650091"/>
		</linearGradient>
		<polygon class="st3" points="217.6,0 217.6,233 162.3,233 162.3,209.1 171.7,218.5 210.8,179.4 162.3,130.9 162.3,0 		"/>
	</g>
	<linearGradient id="SVGID_5_" gradientUnits="userSpaceOnUse" x1="68.2035" y1="23.8645" x2="68.2035" y2="127.969">
		<stop  offset="0" style="stop-color:#3CFFA2"/>
		<stop  offset="0.6652" style="stop-color:#5E77FF"/>
	</linearGradient>
	<polygon class="st4" points="55.2,23.9 81.2,49.8 81.2,128 55.2,102 	"/>
	<linearGradient id="SVGID_6_" gradientUnits="userSpaceOnUse" x1="149.369" y1="105.0308" x2="149.369" y2="209.1346">
		<stop  offset="7.834535e-02" style="stop-color:#5E77FF"/>
		<stop  offset="0.5382" style="stop-color:#5E72FA"/>
		<stop  offset="1" style="stop-color:#650091"/>
	</linearGradient>
	<polygon class="st5" points="162.3,131 162.3,209.1 136.4,183.2 136.4,105 	"/>
	<g>
		<path class="st6" d="M16.4,258.5v3.5c-6.5-0.5-11.2,3.5-12.8,8.7v18.2H0.1v-29.8h3.2v6.9C5.4,261.6,10.5,258.1,16.4,258.5z"/>
		<path class="st6" d="M32.9,258.4c11.3,0,15.2,9.4,13.6,17.2H21.8c0.4,7.6,6.7,10.7,13.4,10.7c3.6,0,7.2-0.9,9.8-2.4v3.5
			c-2.7,1.4-6.5,2.2-10.3,2.2c-8.7,0-16.4-4.8-16.4-15.6C18.2,263.7,25.7,258.4,32.9,258.4z M33.2,261.6c-5.8,0-11.1,3.8-11.4,10.9
			h21.7C43.9,268.3,41.6,261.6,33.2,261.6z"/>
		<path class="st6" d="M56.1,266.7c-1.3,0-2.5-0.8-2.5-2.4c0-1.6,1.2-2.4,2.5-2.4c1.4,0,2.5,0.9,2.5,2.4
			C58.6,265.9,57.5,266.7,56.1,266.7z M56.1,289.4c-1.3,0-2.5-0.9-2.5-2.4s1.2-2.4,2.5-2.4c1.4,0,2.5,0.9,2.5,2.4
			S57.5,289.4,56.1,289.4z"/>
		<path class="st6" d="M106.5,245.4v43.5H92.2v-15.5H80.4v15.5H66v-43.5h14.4v15.5h11.8v-15.5H106.5z"/>
		<path class="st6" d="M127.4,245.4v43.5h-14.4v-43.5H127.4z"/>
		<path class="st6" d="M156.3,244.4c5.1,0,10.1,1,14,2.6v12.8c-3-1.9-7.5-2.9-11.4-2.9c-6.3,0-11.9,2.9-11.9,10.3
			c0,8.2,6.1,9.9,9.3,9.9c0.7,0,1.2-0.1,1.7-0.1v-12.4h13.4V287c-4.7,1.9-9.8,2.9-14.8,2.9c-12.6,0-24.4-7.3-24.4-22.7
			C132.2,251.2,144.1,244.4,156.3,244.4z"/>
		<path class="st6" d="M217.6,245.4v43.5h-14.3v-15.5h-11.8v15.5h-14.4v-43.5h14.4v15.5h11.8v-15.5H217.6z"/>
	</g>
</g>
</svg>
